ffmpeg started on 2025-05-26 at 18:22:01
Report written to "D:\Convert\FFMetrics\reports\psnr_report-6.txt"
Log level: 32
Command line:
ffmpeg -hide_banner -nostdin -i "G:\\\xc0\xed\xe8\xec\xe5\\\xce\xed\xe3\xee\xe8\xed\xe3\xe8\\!_34_\xc2\xe5\xf1\xed\xe0_2024\\DreamCast\\\xc4\xe2\xe5 \xf1\xf2\xee\xf0\xee\xed\xfb \xf1\xfd\xe9\xfe \xf0\xe0\xe4\xe8\xee\\[DC] Seiyuu Radio no Uraomote - 10_Telegram_HEVC.mkv" -i "G:\\\xc0\xed\xe8\xec\xe5\\\xce\xed\xe3\xee\xe8\xed\xe3\xe8\\!_34_\xc2\xe5\xf1\xed\xe0_2024\\DreamCast\\\xc4\xe2\xe5 \xf1\xf2\xee\xf0\xee\xed\xfb \xf1\xfd\xe9\xfe \xf0\xe0\xe4\xe8\xee\\[DC] Seiyuu Radio no Uraomote - 10_Telegram.mp4" -lavfi "[0:v]settb=AVTB,setpts=PTS-STARTPTS,format=pix_fmts=yuv420p10,fps=24000/1001,scale=1920:1080:flags=bicubic[main];[1:v]settb=AVTB,setpts=PTS-STARTPTS,format=pix_fmts=yuv420p,fps=24000/1001,scale=1920:1080:flags=bicubic[ref];[main][ref]psnr=eof_action=endall:stats_file='D\\:/Convert/FFMetrics/logs/psnr_logfile-6.txt'" -f null -
Input #0, matroska,webm, from 'G:\Аниме\Онгоинги\!_34_Весна_2024\DreamCast\Две стороны сэйю радио\[DC] Seiyuu Radio no Uraomote - 10_Telegram_HEVC.mkv':
  Metadata:
    COMPATIBLE_BRANDS: isomiso2avc1mp41
    MAJOR_BRAND     : isom
    MINOR_VERSION   : 512
    ENCODER         : Lavf61.7.100
  Duration: 00:23:46.73, start: -0.021000, bitrate: 882 kb/s
  Stream #0:0: Video: hevc (Main 10), yuv420p10le(tv, bt709, progressive), 1920x1080 [SAR 1:1 DAR 16:9], 23.98 fps, 23.98 tbr, 1k tbn (default)
      Metadata:
        HANDLER_NAME    : VideoHandler
        VENDOR_ID       : [0][0][0][0]
        ENCODER         : Lavc61.19.100 libx265
        BPS             : 685674
        DURATION        : 00:23:46.549708333
        NUMBER_OF_FRAMES: 34203
        NUMBER_OF_BYTES : 122268556
        _STATISTICS_WRITING_APP: mkvpropedit v66.0.0 ('Josie') 64-bit
        _STATISTICS_WRITING_DATE_UTC: 2025-05-26 09:25:35
        _STATISTICS_TAGS: BPS DURATION NUMBER_OF_FRAMES NUMBER_OF_BYTES
  Stream #0:1: Audio: aac (LC), 48000 Hz, stereo, fltp (default)
      Metadata:
        HANDLER_NAME    : SoundHandler
        VENDOR_ID       : [0][0][0][0]
        ENCODER         : Lavc61.19.100 aac
        BPS             : 192912
        DURATION        : 00:23:46.730000000
        NUMBER_OF_FRAMES: 66879
        NUMBER_OF_BYTES : 34404292
        _STATISTICS_WRITING_APP: mkvpropedit v66.0.0 ('Josie') 64-bit
        _STATISTICS_WRITING_DATE_UTC: 2025-05-26 09:25:35
        _STATISTICS_TAGS: BPS DURATION NUMBER_OF_FRAMES NUMBER_OF_BYTES
Input #1, mov,mp4,m4a,3gp,3g2,mj2, from 'G:\Аниме\Онгоинги\!_34_Весна_2024\DreamCast\Две стороны сэйю радио\[DC] Seiyuu Radio no Uraomote - 10_Telegram.mp4':
  Metadata:
    major_brand     : isom
    minor_version   : 512
    compatible_brands: isomiso2avc1mp41
    encoder         : Lavf60.16.100
  Duration: 00:23:46.68, start: 0.000000, bitrate: 3664 kb/s
  Stream #1:0[0x1](und): Video: h264 (High) (avc1 / 0x31637661), yuv420p(tv, bt709, progressive), 1920x1080 [SAR 1:1 DAR 16:9], 3516 kb/s, 23.98 fps, 23.98 tbr, 24k tbn (default)
      Metadata:
        handler_name    : VideoHandler
        vendor_id       : [0][0][0][0]
        encoder         : Lavc60.31.102 h264_qsv
  Stream #1:1[0x2](und): Audio: aac (HE-AACv2) (mp4a / 0x6134706D), 48000 Hz, stereo, fltp, 144 kb/s (default)
      Metadata:
        handler_name    : SoundHandler
        vendor_id       : [0][0][0][0]
Stream mapping:
  Stream #0:0 (hevc) -> settb:default
  Stream #1:0 (h264) -> settb:default
  psnr:default -> Stream #0:0 (wrapped_avframe)
  Stream #0:1 -> #0:1 (aac (native) -> pcm_s16le (native))
Output #0, null, to 'pipe:':
  Metadata:
    COMPATIBLE_BRANDS: isomiso2avc1mp41
    MAJOR_BRAND     : isom
    MINOR_VERSION   : 512
    encoder         : Lavf61.7.100
  Stream #0:0: Video: wrapped_avframe, yuv420p10le(tv, bt709, progressive), 1920x1080 [SAR 1:1 DAR 16:9], q=2-31, 200 kb/s, 23.98 fps, 23.98 tbn
      Metadata:
        encoder         : Lavc61.19.100 wrapped_avframe
  Stream #0:1: Audio: pcm_s16le, 48000 Hz, stereo, s16, 1536 kb/s (default)
      Metadata:
        HANDLER_NAME    : SoundHandler
        VENDOR_ID       : [0][0][0][0]
        _STATISTICS_TAGS: BPS DURATION NUMBER_OF_FRAMES NUMBER_OF_BYTES
        BPS             : 192912
        DURATION        : 00:23:46.730000000
        NUMBER_OF_FRAMES: 66879
        NUMBER_OF_BYTES : 34404292
        _STATISTICS_WRITING_APP: mkvpropedit v66.0.0 ('Josie') 64-bit
        _STATISTICS_WRITING_DATE_UTC: 2025-05-26 09:25:35
        encoder         : Lavc61.19.100 pcm_s16le
frame=  184 fps=0.0 q=-0.0 size=N/A time=00:00:07.67 bitrate=N/A speed=14.8x    frame=  472 fps=453 q=-0.0 size=N/A time=00:00:19.68 bitrate=N/A speed=18.9x    frame=  732 fps=473 q=-0.0 size=N/A time=00:00:30.53 bitrate=N/A speed=19.7x    frame= 1008 fps=486 q=-0.0 size=N/A time=00:00:42.04 bitrate=N/A speed=20.3x    frame= 1253 fps=486 q=-0.0 size=N/A time=00:00:52.26 bitrate=N/A speed=20.3x    frame= 1493 fps=481 q=-0.0 size=N/A time=00:01:02.27 bitrate=N/A speed=20.1x    frame= 1730 fps=479 q=-0.0 size=N/A time=00:01:12.15 bitrate=N/A speed=  20x    frame= 1967 fps=476 q=-0.0 size=N/A time=00:01:22.04 bitrate=N/A speed=19.9x    frame= 2133 fps=460 q=-0.0 size=N/A time=00:01:28.96 bitrate=N/A speed=19.2x    frame= 2247 fps=435 q=-0.0 size=N/A time=00:01:33.71 bitrate=N/A speed=18.2x    frame= 2466 fps=434 q=-0.0 size=N/A time=00:01:42.85 bitrate=N/A speed=18.1x    frame= 2667 fps=430 q=-0.0 size=N/A time=00:01:51.23 bitrate=N/A speed=17.9x    frame= 2889 fps=430 q=-0.0 size=N/A time=00:02:00.49 bitrate=N/A speed=17.9x    frame= 3112 fps=430 q=-0.0 size=N/A time=00:02:09.79 bitrate=N/A speed=17.9x    frame= 3312 fps=427 q=-0.0 size=N/A time=00:02:18.13 bitrate=N/A speed=17.8x    frame= 3540 fps=428 q=-0.0 size=N/A time=00:02:27.64 bitrate=N/A speed=17.8x    frame= 3785 fps=431 q=-0.0 size=N/A time=00:02:37.86 bitrate=N/A speed=  18x    frame= 4060 fps=436 q=-0.0 size=N/A time=00:02:49.33 bitrate=N/A speed=18.2x    frame= 4299 fps=438 q=-0.0 size=N/A time=00:02:59.30 bitrate=N/A speed=18.3x    frame= 4567 fps=442 q=-0.0 size=N/A time=00:03:10.48 bitrate=N/A speed=18.4x    frame= 4807 fps=443 q=-0.0 size=N/A time=00:03:20.49 bitrate=N/A speed=18.5x    frame= 5065 fps=446 q=-0.0 size=N/A time=00:03:31.25 bitrate=N/A speed=18.6x    frame= 5340 fps=449 q=-0.0 size=N/A time=00:03:42.72 bitrate=N/A speed=18.7x    frame= 5608 fps=452 q=-0.0 size=N/A time=00:03:53.90 bitrate=N/A speed=18.9x    frame= 5877 fps=455 q=-0.0 size=N/A time=00:04:05.11 bitrate=N/A speed=  19x    frame= 6146 fps=457 q=-0.0 size=N/A time=00:04:16.33 bitrate=N/A speed=19.1x    frame= 6388 fps=457 q=-0.0 size=N/A time=00:04:26.43 bitrate=N/A speed=19.1x    frame= 6660 fps=460 q=-0.0 size=N/A time=00:04:37.77 bitrate=N/A speed=19.2x    frame= 6943 fps=463 q=-0.0 size=N/A time=00:04:49.58 bitrate=N/A speed=19.3x    frame= 7224 fps=466 q=-0.0 size=N/A time=00:05:01.30 bitrate=N/A speed=19.4x    frame= 7486 fps=467 q=-0.0 size=N/A time=00:05:12.22 bitrate=N/A speed=19.5x    frame= 7761 fps=469 q=-0.0 size=N/A time=00:05:23.69 bitrate=N/A speed=19.6x    frame= 8043 fps=472 q=-0.0 size=N/A time=00:05:35.46 bitrate=N/A speed=19.7x    frame= 8316 fps=473 q=-0.0 size=N/A time=00:05:46.84 bitrate=N/A speed=19.7x    frame= 8598 fps=475 q=-0.0 size=N/A time=00:05:58.60 bitrate=N/A speed=19.8x    frame= 8877 fps=477 q=-0.0 size=N/A time=00:06:10.24 bitrate=N/A speed=19.9x    frame= 9154 fps=479 q=-0.0 size=N/A time=00:06:21.79 bitrate=N/A speed=  20x    frame= 9401 fps=479 q=-0.0 size=N/A time=00:06:32.10 bitrate=N/A speed=  20x    frame= 9674 fps=480 q=-0.0 size=N/A time=00:06:43.48 bitrate=N/A speed=  20x    frame= 9907 fps=479 q=-0.0 size=N/A time=00:06:53.20 bitrate=N/A speed=  20x    frame=10162 fps=480 q=-0.0 size=N/A time=00:07:03.84 bitrate=N/A speed=  20x    frame=10407 fps=480 q=-0.0 size=N/A time=00:07:14.05 bitrate=N/A speed=  20x    frame=10679 fps=481 q=-0.0 size=N/A time=00:07:25.40 bitrate=N/A speed=  20x    frame=10958 fps=482 q=-0.0 size=N/A time=00:07:37.03 bitrate=N/A speed=20.1x    frame=11235 fps=483 q=-0.0 size=N/A time=00:07:48.59 bitrate=N/A speed=20.1x    frame=11516 fps=484 q=-0.0 size=N/A time=00:08:00.31 bitrate=N/A speed=20.2x    frame=11798 fps=486 q=-0.0 size=N/A time=00:08:12.07 bitrate=N/A speed=20.3x    frame=12069 fps=487 q=-0.0 size=N/A time=00:08:23.37 bitrate=N/A speed=20.3x    frame=12328 fps=487 q=-0.0 size=N/A time=00:08:34.18 bitrate=N/A speed=20.3x    frame=12587 fps=487 q=-0.0 size=N/A time=00:08:44.98 bitrate=N/A speed=20.3x    frame=12867 fps=488 q=-0.0 size=N/A time=00:08:56.66 bitrate=N/A speed=20.4x    frame=13083 fps=487 q=-0.0 size=N/A time=00:09:05.67 bitrate=N/A speed=20.3x    frame=13316 fps=486 q=-0.0 size=N/A time=00:09:15.38 bitrate=N/A speed=20.3x    frame=13542 fps=486 q=-0.0 size=N/A time=00:09:24.81 bitrate=N/A speed=20.2x    frame=13755 fps=484 q=-0.0 size=N/A time=00:09:33.69 bitrate=N/A speed=20.2x    frame=13970 fps=483 q=-0.0 size=N/A time=00:09:42.66 bitrate=N/A speed=20.1x    frame=14190 fps=482 q=-0.0 size=N/A time=00:09:51.84 bitrate=N/A speed=20.1x    frame=14453 fps=482 q=-0.0 size=N/A time=00:10:02.81 bitrate=N/A speed=20.1x    frame=14708 fps=483 q=-0.0 size=N/A time=00:10:13.44 bitrate=N/A speed=20.1x    frame=14978 fps=483 q=-0.0 size=N/A time=00:10:24.70 bitrate=N/A speed=20.2x    frame=15262 fps=484 q=-0.0 size=N/A time=00:10:36.55 bitrate=N/A speed=20.2x    frame=15542 fps=485 q=-0.0 size=N/A time=00:10:48.23 bitrate=N/A speed=20.2x    frame=15834 fps=487 q=-0.0 size=N/A time=00:11:00.40 bitrate=N/A speed=20.3x    frame=16120 fps=488 q=-0.0 size=N/A time=00:11:12.33 bitrate=N/A speed=20.3x    frame=16397 fps=489 q=-0.0 size=N/A time=00:11:23.89 bitrate=N/A speed=20.4x    frame=16673 fps=489 q=-0.0 size=N/A time=00:11:35.40 bitrate=N/A speed=20.4x    frame=16922 fps=489 q=-0.0 size=N/A time=00:11:45.78 bitrate=N/A speed=20.4x    frame=17177 fps=489 q=-0.0 size=N/A time=00:11:56.42 bitrate=N/A speed=20.4x    frame=17416 fps=489 q=-0.0 size=N/A time=00:12:06.39 bitrate=N/A speed=20.4x    frame=17673 fps=489 q=-0.0 size=N/A time=00:12:17.11 bitrate=N/A speed=20.4x    frame=17954 fps=490 q=-0.0 size=N/A time=00:12:28.83 bitrate=N/A speed=20.4x    frame=18232 fps=490 q=-0.0 size=N/A time=00:12:40.42 bitrate=N/A speed=20.5x    frame=18508 fps=491 q=-0.0 size=N/A time=00:12:51.93 bitrate=N/A speed=20.5x    frame=18764 fps=491 q=-0.0 size=N/A time=00:13:02.61 bitrate=N/A speed=20.5x    frame=19043 fps=492 q=-0.0 size=N/A time=00:13:14.25 bitrate=N/A speed=20.5x    frame=19313 fps=492 q=-0.0 size=N/A time=00:13:25.51 bitrate=N/A speed=20.5x    frame=19568 fps=492 q=-0.0 size=N/A time=00:13:36.14 bitrate=N/A speed=20.5x    frame=19833 fps=492 q=-0.0 size=N/A time=00:13:47.20 bitrate=N/A speed=20.5x    frame=20100 fps=493 q=-0.0 size=N/A time=00:13:58.33 bitrate=N/A speed=20.5x    frame=20364 fps=493 q=-0.0 size=N/A time=00:14:09.34 bitrate=N/A speed=20.6x    frame=20625 fps=493 q=-0.0 size=N/A time=00:14:20.23 bitrate=N/A speed=20.6x    frame=20883 fps=493 q=-0.0 size=N/A time=00:14:30.99 bitrate=N/A speed=20.6x    frame=21129 fps=493 q=-0.0 size=N/A time=00:14:41.25 bitrate=N/A speed=20.6x    frame=21415 fps=494 q=-0.0 size=N/A time=00:14:53.18 bitrate=N/A speed=20.6x    frame=21676 fps=494 q=-0.0 size=N/A time=00:15:04.06 bitrate=N/A speed=20.6x    frame=21966 fps=495 q=-0.0 size=N/A time=00:15:16.16 bitrate=N/A speed=20.6x    frame=22234 fps=495 q=-0.0 size=N/A time=00:15:27.34 bitrate=N/A speed=20.6x    frame=22513 fps=495 q=-0.0 size=N/A time=00:15:38.97 bitrate=N/A speed=20.7x    frame=22742 fps=495 q=-0.0 size=N/A time=00:15:48.53 bitrate=N/A speed=20.6x    frame=22992 fps=495 q=-0.0 size=N/A time=00:15:58.95 bitrate=N/A speed=20.6x    frame=23231 fps=494 q=-0.0 size=N/A time=00:16:08.92 bitrate=N/A speed=20.6x    frame=23505 fps=495 q=-0.0 size=N/A time=00:16:20.35 bitrate=N/A speed=20.6x    frame=23763 fps=495 q=-0.0 size=N/A time=00:16:31.11 bitrate=N/A speed=20.6x    frame=24044 fps=495 q=-0.0 size=N/A time=00:16:42.83 bitrate=N/A speed=20.7x    frame=24286 fps=495 q=-0.0 size=N/A time=00:16:52.92 bitrate=N/A speed=20.7x    frame=24545 fps=495 q=-0.0 size=N/A time=00:17:03.73 bitrate=N/A speed=20.7x    frame=24806 fps=495 q=-0.0 size=N/A time=00:17:14.61 bitrate=N/A speed=20.7x    frame=25078 fps=496 q=-0.0 size=N/A time=00:17:25.96 bitrate=N/A speed=20.7x    frame=25361 fps=496 q=-0.0 size=N/A time=00:17:37.76 bitrate=N/A speed=20.7x    frame=25636 fps=497 q=-0.0 size=N/A time=00:17:49.23 bitrate=N/A speed=20.7x    frame=25888 fps=496 q=-0.0 size=N/A time=00:17:59.74 bitrate=N/A speed=20.7x    frame=26144 fps=496 q=-0.0 size=N/A time=00:18:10.42 bitrate=N/A speed=20.7x    frame=26392 fps=496 q=-0.0 size=N/A time=00:18:20.76 bitrate=N/A speed=20.7x    frame=26646 fps=496 q=-0.0 size=N/A time=00:18:31.36 bitrate=N/A speed=20.7x    frame=26909 fps=496 q=-0.0 size=N/A time=00:18:42.32 bitrate=N/A speed=20.7x    frame=27182 fps=497 q=-0.0 size=N/A time=00:18:53.71 bitrate=N/A speed=20.7x    frame=27474 fps=497 q=-0.0 size=N/A time=00:19:05.89 bitrate=N/A speed=20.7x    frame=27719 fps=497 q=-0.0 size=N/A time=00:19:16.11 bitrate=N/A speed=20.7x    frame=27982 fps=497 q=-0.0 size=N/A time=00:19:27.08 bitrate=N/A speed=20.7x    frame=28260 fps=498 q=-0.0 size=N/A time=00:19:38.67 bitrate=N/A speed=20.8x    frame=28535 fps=498 q=-0.0 size=N/A time=00:19:50.14 bitrate=N/A speed=20.8x    frame=28804 fps=498 q=-0.0 size=N/A time=00:20:01.36 bitrate=N/A speed=20.8x    frame=29069 fps=498 q=-0.0 size=N/A time=00:20:12.41 bitrate=N/A speed=20.8x    frame=29286 fps=498 q=-0.0 size=N/A time=00:20:21.47 bitrate=N/A speed=20.8x    frame=29543 fps=498 q=-0.0 size=N/A time=00:20:32.18 bitrate=N/A speed=20.8x    frame=29816 fps=498 q=-0.0 size=N/A time=00:20:43.57 bitrate=N/A speed=20.8x    frame=30088 fps=498 q=-0.0 size=N/A time=00:20:54.92 bitrate=N/A speed=20.8x    frame=30373 fps=499 q=-0.0 size=N/A time=00:21:06.80 bitrate=N/A speed=20.8x    frame=30663 fps=499 q=-0.0 size=N/A time=00:21:18.90 bitrate=N/A speed=20.8x    frame=30937 fps=499 q=-0.0 size=N/A time=00:21:30.33 bitrate=N/A speed=20.8x    frame=31182 fps=499 q=-0.0 size=N/A time=00:21:40.54 bitrate=N/A speed=20.8x    frame=31412 fps=499 q=-0.0 size=N/A time=00:21:50.14 bitrate=N/A speed=20.8x    frame=31674 fps=499 q=-0.0 size=N/A time=00:22:01.06 bitrate=N/A speed=20.8x    frame=31944 fps=499 q=-0.0 size=N/A time=00:22:12.33 bitrate=N/A speed=20.8x    frame=32188 fps=499 q=-0.0 size=N/A time=00:22:22.50 bitrate=N/A speed=20.8x    frame=32409 fps=498 q=-0.0 size=N/A time=00:22:31.72 bitrate=N/A speed=20.8x    frame=32616 fps=498 q=-0.0 size=N/A time=00:22:40.35 bitrate=N/A speed=20.8x    frame=32843 fps=497 q=-0.0 size=N/A time=00:22:49.82 bitrate=N/A speed=20.7x    frame=33059 fps=496 q=-0.0 size=N/A time=00:22:58.83 bitrate=N/A speed=20.7x    frame=33245 fps=495 q=-0.0 size=N/A time=00:23:06.59 bitrate=N/A speed=20.7x    frame=33458 fps=495 q=-0.0 size=N/A time=00:23:15.47 bitrate=N/A speed=20.6x    frame=33686 fps=494 q=-0.0 size=N/A time=00:23:24.98 bitrate=N/A speed=20.6x    frame=33914 fps=494 q=-0.0 size=N/A time=00:23:34.49 bitrate=N/A speed=20.6x    frame=34140 fps=494 q=-0.0 size=N/A time=00:23:43.92 bitrate=N/A speed=20.6x    [Parsed_psnr_10 @ 000001e535b631c0] PSNR y:49.263716 u:50.828082 v:50.874471 average:49.731234 min:39.096096 max:inf
[out#0/null @ 000001e5286b3b80] video:14697KiB audio:267516KiB subtitle:0KiB other streams:0KiB global headers:0KiB muxing overhead: unknown
frame=34203 fps=494 q=-0.0 Lsize=N/A time=00:23:46.55 bitrate=N/A speed=20.6x    
